# AST/ASF file generated using VICON BodyLanguage
# -----------------------------------------------
:version 1.10
:name VICON
:units
  mass 1.0
  length 0.45
  angle deg
:documentation
   .ast/.asf automatically generated from VICON data using
   VICON BodyBuilder and BodyLanguage model FoxedUp or BRILLIANT.MOD
:root
   order TX TY TZ RX RY RZ
   axis XYZ
   position 0 0 0  
   orientation 0 0 0 
:bonedata
  begin
     id 1 
     name lhipjoint
     direction 0.62366 -0.717238 0.310833 
     length 2.53602 
     axis 0 0 0  XYZ
  end
  begin
     id 2 
     name lfemur
     direction 0.34202 -0.939693 0  
     length 7.40817  
     axis 0 0 20  XYZ
    dof rx ry rz
    limits (-160.0 20.0)
           (-70.0 70.0)
           (-60.0 70.0)
  end
  begin
     id 3 
     name ltibia
     direction 0.34202 -0.939693 0   
     length 7.7045   
     axis 0 0 20   XYZ
    dof rx
    limits (-10.0 170.0)
  end
  begin
     id 4 
     name lfoot
     direction 0.0673888 -0.185149 0.980397   
     length 2.09456   
     axis -90 7.62852e-016 20   XYZ
    dof rx rz
    limits (-45.0 90.0)
           (-70.0 20.0)
  end
  begin
     id 5 
     name ltoes
     direction 1.53575e-011 -4.21994e-011 1   
     length 1.05543   
     axis -90 7.62852e-016 20   XYZ
    dof rx
    limits (-90.0 20.0)
  end
  begin
     id 6 
     name rhipjoint
     direction -0.489018 -0.800347 0.346851   
     length 2.27268  
     axis 0 0 0  XYZ 
  end
  begin
     id 7 
     name rfemur
     direction -0.34202 -0.939693 0   
     length 7.55487   
     axis 0 0 -20   XYZ
    dof rx ry rz
    limits (-160.0 20.0)
           (-70.0 70.0)
           (-70.0 60.0)
  end
  begin
     id 8 
     name rtibia
     direction -0.34202 -0.939693 0   
     length 7.78969   
     axis 0 0 -20   XYZ
    dof rx
    limits (-10.0 170.0)
 end
 begin
     id 9 
     name rfoot
     direction -0.0859318 -0.236096 0.967923   
     length 2.19143  
     axis -90 -7.62852e-016 -20   XYZ
    dof rx rz
    limits (-45.0 90.0)
           (-20.0 70.0)
  end
  begin
     id 10 
     name rtoes
     direction -1.53538e-011 -4.21989e-011 1   
     length 1.09845   
     axis -90 -7.62852e-016 -20   XYZ
    dof rx
    limits (-90.0 20.0)
  end
  begin
     id 11 
     name lowerback
     direction -0.00762546 0.998978 -0.0445553   
     length 1.98161   
     axis 0 0 0   XYZ
    dof rx ry rz
    limits (-20.0 45.0)
           (-30.0 30.0)
           (-30.0 30.0)
  end
  begin
     id 12 
     name upperback
     direction 0.0422361 0.998867 -0.0219156   
     length 1.97558   
     axis 0 0 0   XYZ
    dof rx ry rz
    limits (-20.0 45.0)
           (-30.0 30.0)
           (-30.0 30.0)
  end
  begin
     id 13 
     name thorax
     direction 0.0442465 0.999021 7.47603e-005   
     length 1.97799   
     axis 0 0 0   XYZ
    dof rx ry rz
    limits (-20.0 45.0)
           (-30.0 30.0)
           (-30.0 30.0)
  end
  begin
     id 14 
     name lowerneck
     direction 0.00312169 0.984641 0.174564   
     length 1.78995   
     axis 0 0 0   XYZ
    dof rx ry rz
    limits (-20.0 45.0)
           (-30.0 30.0)
           (-30.0 30.0)
  end
  begin
     id 15 
     name upperneck
     direction -0.0383028 0.985255 -0.166749   
     length 1.83053   
     axis 0 0 0   XYZ
    dof rx ry rz
    limits (-20.0 45.0)
           (-30.0 30.0)
           (-30.0 30.0)
  end
  begin
     id 16
     name head
     direction -0.0129546 0.997059 -0.0755386  
     length 1.84088  
     axis 0 0 0   XYZ
    dof rx ry rz
    limits (-20.0 45.0)
           (-30.0 30.0)
           (-30.0 30.0)
  end
  begin
     id 17 
     name lclavicle
     direction 0.912857 0.370519 -0.171488  
     length 3.51279  
     axis 0 0 0   XYZ
    dof ry rz
    limits (-20.0 10.0)
           (0.0 20.0)
  end
  begin
     id 18 
     name lhumerus
     direction 1 -4.48962e-011 3.64361e-027   
     length 4.95663   
     axis 180 -30 -90   XYZ
    dof rx ry rz
    limits (-60.0 90.0)
           (-90.0 90.0)
           (-90.0 90.0)
  end
  begin
     id 19
     name lradius
     direction 1 -4.48974e-011 5.97202e-027   
     length 3.38177   
     axis 180 -30 -90   XYZ
    dof rx
    limits (-10.0 170.0)
  end
  begin
     id 20
     name lwrist
     direction 1 -4.4896e-011 9.83288e-027   
     length 1.69088   
     axis -9.31221e-015 90 90   XYZ
    dof ry
    limits (-180.0 0.0)
 end
  begin
     id 21 
     name lhand
     direction 1 -4.4902e-011 1.96551e-026   
     length 0.662909   
     axis -1.25475e-014 90 90   XYZ
    dof rx rz
    limits (-90.0 90.0)
           (-45.0 45.0)
  end
  begin
     id 22 
     name lfingers
     direction 1 -4.48971e-011 3.93277e-026   
     length 0.534454   
     axis -2.50945e-014 90 90   XYZ
    dof rx
    limits (0.0 90.0)
  end
  begin
     id 23
     name lthumb
     direction 0.707107 -6.34933e-011 0.707107   
     length 0.767373   
     axis -90 45 -4.80359e-014   XYZ
    dof rx rz
    limits (-45.0 45.0)
           (-45.0 45.0)
  end
  begin
     id 24 
     name rclavicle
     direction -0.900919 0.395364 -0.178976   
     length 3.40627  
     axis 0 0 0   XYZ 
    dof ry rz
    limits (-10.0 20.0)
           (-20.0 0.0)
  end
  begin
     id 25 
     name rhumerus
     direction -1 -4.48969e-011 1.03875e-027  
     length 5.08365   
     axis 180 30 90   XYZ
    dof rx ry rz
    limits (-90.0 60.0)
           (-90.0 90.0)
           (-90.0 90.0)
  end
  begin
     id 26 
     name rradius
     direction -1 -4.48951e-011 5.02733e-027   
     length 3.35984   
     axis 180 30 90   XYZ
    dof rx
    limits (-10.0 170.0)
  end
  begin
     id 27 
     name rwrist
     direction -1 -4.49011e-011 9.82828e-027   
     length 1.67992   
     axis -9.31221e-015 -90 -90   XYZ
    dof ry
    limits (-180.0 0.0)
  end
  begin
     id 28
     name rhand
     direction -1 -4.48894e-011 1.96774e-026   
     length 0.820764   
     axis -1.25475e-014 -90 -90   XYZ
    dof rx rz
    limits (-90.0 90.0)
           (-45.0 45.0)
  end
  begin
     id 29
     name rfingers
     direction -1 -4.49095e-011 3.92833e-026   
     length 0.661721   
     axis -2.50945e-014 -90 -90   XYZ
    dof rx
    limits (0.0 90.0)
  end
  begin
     id 30
     name rthumb
     direction -0.707107 -6.34881e-011 0.707107   
     length 0.950103   
     axis -90 -45 4.80359e-014   XYZ
    dof rx rz
    limits (-45.0 45.0)
           (-45.0 45.0)
  end
:hierarchy
  begin
    root lhipjoint rhipjoint lowerback
    lhipjoint lfemur
    lfemur ltibia
    ltibia lfoot
    lfoot ltoes
    rhipjoint rfemur
    rfemur rtibia
    rtibia rfoot
    rfoot rtoes
    lowerback upperback
    upperback thorax
    thorax lowerneck lclavicle rclavicle
    lowerneck upperneck
    upperneck head
    lclavicle lhumerus
    lhumerus lradius
    lradius lwrist
    lwrist lhand lthumb
    lhand lfingers
    rclavicle rhumerus
    rhumerus rradius
    rradius rwrist
    rwrist rhand rthumb
    rhand rfingers
  end

#!OML:ASF I:\golf\golf\golf 2\Subject 1\2002-09-07\Subject1.ASF
:FULLY-SPECIFIED
:DEGREES
19
root -11.9749 18.0971 6.48533 -79.9796 85.2121 -95.8914
lowerback 3.59336 1.31333 -1.77888
upperback 3.67446 1.79702 4.41488
thorax 1.57789 0.861351 5.53168
lowerneck -12.025 -1.77516 1.87314
upperneck 42.4949 0.583926 -2.98516
head 17.7636 0.856202 -1.39401
rclavicle -6.16232e-015 1.51076e-014
rhumerus -10.7125 10.5762 -100.613
rradius 32.1602
rwrist -48.4013
rhand -31.4047 -16.1433
rfingers 7.12502
rthumb -4.67395 -46.0717
lclavicle -6.16232e-015 1.51076e-014
lhumerus -13.6442 -48.4048 108.812
lradius 37.7675
lwrist 54.0043
lhand -7.08368 63.3817
lfingers 7.12502
lthumb -161.21 87.5058
rfemur -26.9069 0.844047 15.55
rtibia 18.5925
rfoot -3.06979 -7.98467
rtoes 4.91565
lfemur -27.1421 1.77415 -7.34298
ltibia 20.3788
lfoot -6.55071 -0.955877
ltoes -11.882
20
root -11.975 18.0965 6.48449 -79.3558 85.2539 -95.264
lowerback 3.5519 1.32353 -1.75376
upperback 3.69975 1.80932 4.33876
thorax 1.62862 0.866832 5.43855
lowerneck -12.0085 -1.78316 1.95975
upperneck 42.4725 0.552562 -3.01323
head 17.7441 0.852488 -1.42824
rclavicle 1.5704e-014 1.19271e-014
rhumerus -10.7263 10.5157 -100.647
rradius 32.2402
rwrist -48.3963
rhand -31.4698 -16.1155
rfingers 7.12502
rthumb -4.73683 -46.0426
lclavicle 1.5704e-014 1.19271e-014
lhumerus -13.6247 -48.5279 108.761
lradius 37.7858
lwrist 54.0803
lhand -7.16401 63.5187
lfingers 7.12502
lthumb -161.287 87.3614
rfemur -26.9127 0.851709 15.4981
rtibia 18.5941
rfoot -3.07751 -7.94502
rtoes 5.0636
lfemur -27.1284 1.86866 -7.42057
ltibia 20.3699
lfoot -6.5659 -1.00781
ltoes -11.6887
21
root -11.9752 18.097 6.48386 -78.7516 85.2913 -94.6556
lowerback 3.52535 1.29462 -1.80171
upperback 3.72054 1.76899 4.32667
thorax 1.66846 0.844429 5.45553
lowerneck -12.0236 -1.76167 1.89599
upperneck 42.4803 0.602605 -3.00982
head 17.7554 0.861708 -1.4068
rclavicle -3.08116e-014 -4.37326e-014
rhumerus -10.7731 10.5902 -100.644
rradius 32.3399
rwrist -48.4632
rhand -31.697 -16.0439
rfingers 7.12502
rthumb -4.9562 -45.9659
lclavicle -3.08116e-014 -4.37326e-014
lhumerus -13.5825 -48.4736 108.725
lradius 37.7672
lwrist 54.0478
lhand -7.0886 63.5203
lfingers 7.12502
lthumb -161.214 87.3668
rfemur -26.9197 0.806689 15.4767
rtibia 18.589
rfoot -3.05463 -7.84387
rtoes 4.72692
lfemur -27.112 1.85834 -7.46
ltibia 20.3791
lfoot -6.57083 -0.957213
ltoes -12.0166
22
root -11.9778 18.0956 6.48209 -78.9883 85.2921 -94.8988
lowerback 3.53093 1.26496 -1.81682
upperback 3.72105 1.72922 4.33564
thorax 1.66958 0.824082 5.47455
lowerneck -12.0391 -1.74553 1.87372
upperneck 42.4893 0.633135 -3.00851
head 17.7665 0.87004 -1.39718
rclavicle 1.64991e-014 2.06736e-014
rhumerus -10.7838 10.4999 -100.649
rradius 32.3597
rwrist -48.606
rhand -32.0723 -15.6921
rfingers 7.12502
rthumb -5.31858 -45.6053
lclavicle 1.64991e-014 2.06736e-014
lhumerus -13.5828 -48.448 108.732
lradius 37.7777
lwrist 53.9391
lhand -7.00786 63.4891
lfingers 7.12502
lthumb -161.137 87.4055
rfemur -26.9318 0.749584 15.4934
rtibia 18.5778
rfoot -3.03922 -7.81986
rtoes 4.25328
lfemur -27.1357 1.74776 -7.43251
ltibia 20.3965
lfoot -6.5494 -0.846684
ltoes -12.2187
23
root -11.9808 18.0942 6.48059 -79.581 85.2189 -95.5057
lowerback 3.54375 1.2432 -1.74351
upperback 3.72034 1.70232 4.3436
thorax 1.66615 0.812475 5.44142
lowerneck -12.0294 -1.73235 1.95466
upperneck 42.4686 0.637411 -3.04048
head 17.7515 0.879295 -1.42597
rclavicle 1.90833e-014 3.73715e-014
rhumerus -10.7594 10.308 -100.696
rradius 32.3451
rwrist -48.7112
rhand -32.2524 -15.4417
rfingers 7.12502
rthumb -5.49247 -45.3505
lclavicle 1.90833e-014 3.73715e-014
lhumerus -13.5772 -48.5396 108.696
lradius 37.8322
lwrist 53.8922
lhand -6.803 63.4506
lfingers 7.12502
lthumb -160.94 87.4633
rfemur -26.939 0.782628 15.561
rtibia 18.5611
rfoot -2.99808 -7.89195
rtoes 4.31223
lfemur -27.1902 1.75109 -7.35268
ltibia 20.4181
lfoot -6.5484 -0.865853
ltoes -12.1902
24
root -11.9822 18.0949 6.47845 -79.699 85.1568 -95.6203
lowerback 3.56599 1.22941 -1.65785
upperback 3.72753 1.68614 4.3346
thorax 1.66515 0.806469 5.38305
lowerneck -12.0217 -1.72161 2.02422
upperneck 42.4408 0.634557 -3.06092
head 17.7326 0.884798 -1.44858
rclavicle -7.15625e-015 -1.19271e-014
rhumerus -10.7111 10.0289 -100.743
rradius 32.3082
rwrist -48.4796
rhand -32.0799 -15.6572
rfingers 7.12502
rthumb -5.32587 -45.5703
lclavicle -7.15625e-015 -1.19271e-014
lhumerus -13.5581 -48.6308 108.642
lradius 37.8277
lwrist 53.874
lhand -6.47706 63.2634
lfingers 7.12502
lthumb -160.626 87.6817
rfemur -26.9217 0.855682 15.6089
rtibia 18.5326
rfoot -2.92874 -7.94441
rtoes 4.4661
lfemur -27.2128 1.77831 -7.29479
ltibia 20.4573
lfoot -6.58457 -0.901988
ltoes -12.3401
